<svg xmlns="http://www.w3.org/2000/svg" viewBox="0 0 512 512">
  <defs>
    <linearGradient id="bgGradient" x1="0%" y1="0%" x2="100%" y2="100%">
      <stop offset="0%" stop-color="#0f172a" />
      <stop offset="100%" stop-color="#1e293b" />
    </linearGradient>
    <linearGradient id="moonGradient" x1="0%" y1="0%" x2="100%" y2="100%">
      <stop offset="0%" stop-color="#60a5fa" />
      <stop offset="100%" stop-color="#3b82f6" />
    </linearGradient>
  </defs>
  
  <rect width="512" height="512" rx="128" fill="url(#bgGradient)" />
  
  <g transform="translate(256, 256) scale(1.2)">
    <!-- Crescent Moon -->
    <path 
      d="M20.893 113.882A109.96 109.96 0 0110.02 61.164c0-21.754 5.92-42.348 16.516-59.888C5.556 12.036 -8.196 29.563 -8.196 50.155c0 60.75 49.25 110 110 110 21.01 0 40.638-5.748 57.5-15.586-18.068 11.238-39.29 17.844-61.94 17.844-48.455 0-89.69-31.228-105-74.832z" 
      fill="url(#moonGradient)" 
      transform="translate(-50, -60)"
    />
    
    <!-- 8-Pointed Islamic Star -->
    <path
      d="M32 0 L40 24 L64 32 L40 40 L32 64 L24 40 L0 32 L24 24 Z"
      fill="#f8fafc"
      transform="translate(15, -45) scale(0.6) rotate(22.5 32 32)"
    />
  </g>
</svg>
